<svg xmlns="http://www.w3.org/2000/svg" version="1.1" xmlns:xlink="http://www.w3.org/1999/xlink" xmlns:svgjs="http://svgjs.dev/svgjs" width="1500" height="1500" viewBox="0 0 1500 1500"><rect width="1500" height="1500" fill="#000000"></rect><g transform="matrix(0.6666666666666666,0,0,0.6666666666666666,249.39393939393938,570.9282606993459)"><svg viewBox="0 0 396 142" data-background-color="#89939e" preserveAspectRatio="xMidYMid meet" height="537" width="1500" xmlns="http://www.w3.org/2000/svg" xmlns:xlink="http://www.w3.org/1999/xlink"><g id="tight-bounds" transform="matrix(1,0,0,1,0.2400000000000091,0.02845525333211185)"><svg viewBox="0 0 395.52 141.9430894933358" height="141.9430894933358" width="395.52"><g><svg viewBox="0 0 560.0802426083059 200.99999999999997" height="141.9430894933358" width="395.52"><g><rect width="8.527964616255616" height="200.99999999999997" x="215.6330568038404" y="0" fill="#ffffff" opacity="1" stroke-width="0" stroke="transparent" fill-opacity="1" class="rect-qz-0" data-fill-palette-color="primary" rx="1%" id="qz-0" data-palette-color="#ffffff"></rect></g><g transform="matrix(1,0,0,1,246.48553612233584,0.4999999999999858)"><svg viewBox="0 0 313.59470648597005 200" height="200" width="313.59470648597005"><g id="textblocktransform"><svg viewBox="0 0 313.59470648597005 200" height="200" width="313.59470648597005" id="textblock"><g><svg viewBox="0 0 313.59470648597005 200" height="200" width="313.59470648597005"><g transform="matrix(1,0,0,1,0,0)"><svg width="313.59470648597005" viewBox="1.3399999999999999 -39.11 173.1 94.80000000000001" height="200" data-palette-color="#ffffff"><svg></svg><svg></svg><g class="wordmark-text-0" data-fill-palette-color="primary" id="text-0"><path d="M19.02-31.47v31.47h-6.08v-31.47h-11.6l0.81-4.3h28.83l-0.8 4.3zM42.85 0.49v0c-2.04 0-3.837-0.343-5.39-1.03-1.553-0.68-2.86-1.603-3.92-2.77-1.053-1.16-1.853-2.507-2.4-4.04-0.547-1.527-0.82-3.147-0.82-4.86v0c0-1.967 0.35-3.81 1.05-5.53 0.7-1.713 1.68-3.21 2.94-4.49 1.267-1.28 2.77-2.29 4.51-3.03 1.74-0.74 3.653-1.11 5.74-1.11v0c2.033 0 3.83 0.343 5.39 1.03 1.56 0.68 2.87 1.607 3.93 2.78 1.06 1.173 1.863 2.53 2.41 4.07 0.54 1.533 0.81 3.157 0.81 4.87v0c0 1.987-0.353 3.837-1.06 5.55-0.707 1.72-1.693 3.213-2.96 4.48-1.273 1.273-2.78 2.27-4.52 2.99-1.74 0.727-3.643 1.09-5.71 1.09zM43.87-3.74v0c1.04 0 1.993-0.213 2.86-0.64 0.86-0.433 1.6-1.037 2.22-1.81 0.62-0.773 1.1-1.697 1.44-2.77 0.34-1.073 0.51-2.26 0.51-3.56v0c0-1.273-0.167-2.487-0.5-3.64-0.333-1.16-0.817-2.183-1.45-3.07-0.633-0.887-1.407-1.593-2.32-2.12-0.913-0.527-1.947-0.79-3.1-0.79v0c-1.06 0-2.02 0.22-2.88 0.66-0.86 0.433-1.597 1.043-2.21 1.83-0.613 0.78-1.09 1.71-1.43 2.79-0.34 1.087-0.51 2.27-0.51 3.55v0c0 1.287 0.167 2.51 0.5 3.67 0.333 1.153 0.817 2.17 1.45 3.05 0.633 0.88 1.407 1.577 2.32 2.09 0.913 0.507 1.947 0.76 3.1 0.76zM69.6-18.46v13.7c0.407 0.193 0.843 0.357 1.31 0.49 0.467 0.127 0.92 0.23 1.36 0.31 0.433 0.087 0.857 0.147 1.27 0.18 0.407 0.027 0.753 0.04 1.04 0.04v0c1.253 0 2.387-0.247 3.4-0.74 1.007-0.493 1.87-1.17 2.59-2.03 0.713-0.853 1.26-1.85 1.64-2.99 0.387-1.14 0.58-2.36 0.58-3.66v0c0-1.22-0.16-2.36-0.48-3.42-0.313-1.053-0.757-1.973-1.33-2.76-0.567-0.78-1.257-1.393-2.07-1.84-0.813-0.447-1.71-0.67-2.69-0.67v0c-1.173 0-2.323 0.313-3.45 0.94-1.133 0.627-2.19 1.443-3.17 2.45zM68.43-25.88l0.88 4.35c0.587-0.553 1.223-1.117 1.91-1.69 0.68-0.567 1.417-1.083 2.21-1.55 0.787-0.46 1.63-0.843 2.53-1.15 0.907-0.3 1.873-0.45 2.9-0.45v0c1.58 0 2.99 0.347 4.23 1.04 1.247 0.693 2.3 1.613 3.16 2.76 0.867 1.147 1.53 2.463 1.99 3.95 0.467 1.493 0.7 3.03 0.7 4.61v0c0 2.08-0.383 4.007-1.15 5.78-0.76 1.773-1.8 3.307-3.12 4.6-1.32 1.3-2.867 2.31-4.64 3.03-1.773 0.727-3.66 1.09-5.66 1.09v0c-0.393 0-0.807-0.013-1.24-0.04-0.427-0.02-0.85-0.057-1.27-0.11-0.413-0.047-0.817-0.107-1.21-0.18-0.387-0.073-0.737-0.16-1.05-0.26v0 13.19h-5.9v-38.97zM105.86-3.81v0c0.973 0 1.88-0.127 2.72-0.38 0.84-0.253 1.57-0.61 2.19-1.07 0.613-0.467 1.097-1.037 1.45-1.71 0.347-0.673 0.52-1.433 0.52-2.28v0c0-1.013-0.24-1.87-0.72-2.57-0.48-0.7-1.117-1.313-1.91-1.84-0.8-0.527-1.703-1.003-2.71-1.43-1.013-0.42-2.043-0.85-3.09-1.29-1.053-0.44-2.083-0.923-3.09-1.45-1.007-0.533-1.91-1.17-2.71-1.91-0.8-0.74-1.44-1.623-1.92-2.65-0.48-1.027-0.72-2.263-0.72-3.71v0c0-1.58 0.303-2.997 0.91-4.25 0.6-1.253 1.447-2.317 2.54-3.19 1.087-0.88 2.387-1.553 3.9-2.02 1.513-0.46 3.183-0.69 5.01-0.69v0c0.533 0 1.15 0.023 1.85 0.07 0.7 0.047 1.45 0.123 2.25 0.23 0.8 0.107 1.633 0.247 2.5 0.42 0.873 0.167 1.75 0.38 2.63 0.64v0l-0.96 4.74-0.46 0.24c-0.86-0.387-1.697-0.71-2.51-0.97-0.82-0.26-1.593-0.473-2.32-0.64-0.733-0.16-1.413-0.273-2.04-0.34-0.627-0.067-1.177-0.1-1.65-0.1v0c-0.893 0-1.707 0.107-2.44 0.32-0.733 0.213-1.357 0.523-1.87 0.93-0.513 0.407-0.913 0.907-1.2 1.5-0.28 0.593-0.42 1.273-0.42 2.04v0c0 1.027 0.243 1.9 0.73 2.62 0.487 0.727 1.127 1.367 1.92 1.92 0.787 0.553 1.69 1.047 2.71 1.48 1.013 0.427 2.053 0.863 3.12 1.31 1.067 0.447 2.11 0.933 3.13 1.46 1.013 0.52 1.917 1.137 2.71 1.85 0.787 0.72 1.423 1.563 1.91 2.53 0.487 0.967 0.73 2.127 0.73 3.48v0c0 1.513-0.317 2.937-0.95 4.27-0.633 1.333-1.533 2.5-2.7 3.5-1.16 1-2.553 1.79-4.18 2.37-1.627 0.58-3.443 0.87-5.45 0.87v0c-0.813 0-1.667-0.053-2.56-0.16-0.893-0.107-1.803-0.257-2.73-0.45-0.933-0.2-1.853-0.443-2.76-0.73-0.913-0.293-1.793-0.63-2.64-1.01v0l0.98-4.78 0.48-0.24c1.727 0.94 3.413 1.687 5.06 2.24 1.64 0.553 3.227 0.83 4.76 0.83zM139.72-3.81v0c-0.42 0.36-0.927 0.787-1.52 1.28-0.6 0.5-1.26 0.973-1.98 1.42-0.727 0.447-1.517 0.823-2.37 1.13-0.853 0.313-1.753 0.47-2.7 0.47v0c-0.96 0-1.85-0.177-2.67-0.53-0.82-0.347-1.537-0.833-2.15-1.46-0.607-0.627-1.087-1.377-1.44-2.25-0.347-0.867-0.52-1.83-0.52-2.89v0c0-1.107 0.223-2.19 0.67-3.25 0.447-1.053 1.193-1.997 2.24-2.83 1.053-0.827 2.443-1.497 4.17-2.01 1.72-0.513 3.85-0.77 6.39-0.77v0h1.78v-2c0-0.72-0.12-1.363-0.36-1.93-0.247-0.573-0.59-1.063-1.03-1.47-0.44-0.407-0.963-0.717-1.57-0.93-0.613-0.207-1.293-0.31-2.04-0.31v0c-0.587 0-1.213 0.067-1.88 0.2-0.667 0.14-1.327 0.333-1.98 0.58-0.647 0.24-1.28 0.527-1.9 0.86-0.62 0.333-1.173 0.697-1.66 1.09v0l-0.44-0.24-1.13-4.1c1.973-1.027 3.807-1.72 5.5-2.08 1.693-0.36 3.28-0.54 4.76-0.54v0c1.527 0 2.89 0.157 4.09 0.47 1.193 0.307 2.207 0.78 3.04 1.42 0.827 0.647 1.457 1.463 1.89 2.45 0.433 0.98 0.65 2.147 0.65 3.5v0 11.96c0 0.247 0.02 0.517 0.06 0.81 0.04 0.293 0.12 0.57 0.24 0.83 0.12 0.26 0.3 0.48 0.54 0.66 0.233 0.18 0.547 0.27 0.94 0.27v0c0.227 0 0.503-0.033 0.83-0.1 0.327-0.067 0.653-0.173 0.98-0.32v0 2.93c-0.88 0.6-1.757 1.08-2.63 1.44-0.873 0.36-1.723 0.54-2.55 0.54v0c-0.653 0-1.213-0.123-1.68-0.37-0.473-0.24-0.873-0.56-1.2-0.96-0.327-0.4-0.6-0.857-0.82-1.37-0.22-0.513-0.403-1.047-0.55-1.6zM139.62-6.96v-5.66h-1.53c-1.693 0-3.057 0.117-4.09 0.35-1.033 0.24-1.837 0.567-2.41 0.98-0.567 0.413-0.943 0.893-1.13 1.44-0.187 0.547-0.28 1.137-0.28 1.77v0c0 0.667 0.097 1.253 0.29 1.76 0.193 0.5 0.457 0.923 0.79 1.27 0.333 0.34 0.73 0.6 1.19 0.78 0.453 0.18 0.94 0.27 1.46 0.27v0c0.393 0 0.8-0.047 1.22-0.14 0.427-0.087 0.87-0.243 1.33-0.47 0.467-0.233 0.96-0.537 1.48-0.91 0.52-0.373 1.08-0.853 1.68-1.44zM154.39 0v-25.88h5.94v25.88zM157.35-30.98v0c-0.52 0-0.997-0.087-1.43-0.26-0.433-0.167-0.807-0.397-1.12-0.69-0.32-0.293-0.567-0.643-0.74-1.05-0.167-0.407-0.25-0.847-0.25-1.32v0c0-0.487 0.093-0.94 0.28-1.36 0.187-0.413 0.447-0.78 0.78-1.1 0.333-0.313 0.723-0.56 1.17-0.74 0.447-0.18 0.933-0.27 1.46-0.27v0c0.5 0 0.963 0.09 1.39 0.27 0.42 0.18 0.787 0.42 1.1 0.72 0.307 0.3 0.55 0.657 0.73 1.07 0.18 0.42 0.27 0.863 0.27 1.33v0c0 0.493-0.093 0.947-0.28 1.36-0.193 0.413-0.457 0.77-0.79 1.07-0.333 0.307-0.72 0.543-1.16 0.71-0.433 0.173-0.903 0.26-1.41 0.26zM168.53 0v-39.11h5.91v39.11z" fill="#ffffff" fill-rule="nonzero" stroke="none" stroke-width="1" stroke-linecap="butt" stroke-linejoin="miter" stroke-miterlimit="10" stroke-dasharray="" stroke-dashoffset="0" font-family="none" font-weight="none" font-size="none" text-anchor="none" style="mix-blend-mode: normal" data-fill-palette-color="primary" opacity="1"></path><path transform="translate(0,55.2)" d="M22.61-19.78v0c0.973 0.28 1.91 0.663 2.81 1.15 0.893 0.487 1.687 1.08 2.38 1.78 0.687 0.7 1.24 1.503 1.66 2.41 0.413 0.9 0.62 1.903 0.62 3.01v0c0 1.32-0.323 2.657-0.97 4.01-0.64 1.347-1.587 2.57-2.84 3.67-1.253 1.1-2.807 2-4.66 2.7-1.86 0.7-4 1.05-6.42 1.05v0h-10.16v-35.77h11.16c2.047 0 3.837 0.22 5.37 0.66 1.527 0.44 2.803 1.02 3.83 1.74 1.027 0.713 1.797 1.543 2.31 2.49 0.513 0.94 0.77 1.907 0.77 2.9v0c0 0.847-0.163 1.657-0.49 2.43-0.327 0.773-0.76 1.507-1.3 2.2-0.533 0.693-1.153 1.34-1.86 1.94-0.713 0.6-1.45 1.143-2.21 1.63zM11.08-16.5v12.2h4.69c1.447 0 2.68-0.19 3.7-0.57 1.02-0.38 1.847-0.877 2.48-1.49 0.633-0.613 1.093-1.307 1.38-2.08 0.28-0.767 0.42-1.55 0.42-2.35v0c0-0.993-0.193-1.847-0.58-2.56-0.393-0.72-0.947-1.31-1.66-1.77-0.72-0.467-1.573-0.813-2.56-1.04-0.993-0.227-2.093-0.34-3.3-0.34v0zM11.08-20.68h7.96c1.027-0.713 1.853-1.55 2.48-2.51 0.627-0.96 0.94-2.027 0.94-3.2v0c0-1.567-0.613-2.803-1.84-3.71-1.233-0.913-2.98-1.37-5.24-1.37v0h-4.3zM58.13-5.32v2.95c-0.713 0.507-1.487 0.94-2.32 1.3-0.827 0.353-1.68 0.65-2.56 0.89-0.88 0.233-1.757 0.403-2.63 0.51-0.867 0.107-1.693 0.16-2.48 0.16v0c-1.807 0-3.487-0.277-5.04-0.83-1.553-0.553-2.903-1.367-4.05-2.44-1.147-1.073-2.047-2.397-2.7-3.97-0.647-1.573-0.97-3.377-0.97-5.41v0c0-2.167 0.363-4.127 1.09-5.88 0.733-1.76 1.717-3.253 2.95-4.48 1.227-1.233 2.65-2.183 4.27-2.85 1.62-0.667 3.307-1 5.06-1v0c1.467 0 2.83 0.24 4.09 0.72 1.267 0.48 2.36 1.193 3.28 2.14 0.92 0.947 1.64 2.127 2.16 3.54 0.52 1.413 0.78 3.057 0.78 4.93v0c0 0.453-0.02 0.937-0.06 1.45-0.04 0.513-0.11 1.017-0.21 1.51v0h-17.29c0 1.313 0.233 2.477 0.7 3.49 0.467 1.007 1.123 1.847 1.97 2.52 0.84 0.68 1.857 1.193 3.05 1.54 1.187 0.353 2.497 0.53 3.93 0.53v0c0.407 0 0.883-0.017 1.43-0.05 0.54-0.033 1.12-0.1 1.74-0.2 0.62-0.093 1.257-0.227 1.91-0.4 0.647-0.173 1.28-0.397 1.9-0.67zM41.5-14.97h12.06c0-1.187-0.15-2.227-0.45-3.12-0.3-0.893-0.71-1.643-1.23-2.25-0.52-0.6-1.127-1.05-1.82-1.35-0.693-0.3-1.437-0.45-2.23-0.45v0c-0.9 0-1.73 0.177-2.49 0.53-0.767 0.36-1.437 0.863-2.01 1.51-0.567 0.64-1.013 1.4-1.34 2.28-0.327 0.88-0.49 1.83-0.49 2.85zM79.79-3.81v0c-0.427 0.36-0.937 0.787-1.53 1.28-0.593 0.5-1.253 0.973-1.98 1.42-0.72 0.447-1.51 0.823-2.37 1.13-0.853 0.313-1.75 0.47-2.69 0.47v0c-0.96 0-1.853-0.177-2.68-0.53-0.82-0.347-1.537-0.833-2.15-1.46-0.607-0.627-1.087-1.377-1.44-2.25-0.347-0.867-0.52-1.83-0.52-2.89v0c0-1.107 0.223-2.19 0.67-3.25 0.447-1.053 1.197-1.997 2.25-2.83 1.047-0.827 2.433-1.497 4.16-2.01 1.727-0.513 3.86-0.77 6.4-0.77v0h1.78v-2c0-0.72-0.123-1.363-0.37-1.93-0.24-0.573-0.58-1.063-1.02-1.47-0.44-0.407-0.967-0.717-1.58-0.93-0.607-0.207-1.287-0.31-2.04-0.31v0c-0.587 0-1.213 0.067-1.88 0.2-0.667 0.14-1.323 0.333-1.97 0.58-0.653 0.24-1.29 0.527-1.91 0.86-0.62 0.333-1.173 0.697-1.66 1.09v0l-0.44-0.24-1.12-4.1c1.967-1.027 3.797-1.72 5.49-2.08 1.693-0.36 3.28-0.54 4.76-0.54v0c1.533 0 2.897 0.157 4.09 0.47 1.2 0.307 2.213 0.78 3.04 1.42 0.833 0.647 1.463 1.463 1.89 2.45 0.433 0.98 0.65 2.147 0.65 3.5v0 11.96c0 0.247 0.02 0.517 0.06 0.81 0.04 0.293 0.123 0.57 0.25 0.83 0.12 0.26 0.297 0.48 0.53 0.66 0.24 0.18 0.553 0.27 0.94 0.27v0c0.227 0 0.503-0.033 0.83-0.1 0.327-0.067 0.653-0.173 0.98-0.32v0 2.93c-0.88 0.6-1.757 1.08-2.63 1.44-0.867 0.36-1.717 0.54-2.55 0.54v0c-0.647 0-1.207-0.123-1.68-0.37-0.473-0.24-0.873-0.56-1.2-0.96-0.327-0.4-0.6-0.857-0.82-1.37-0.22-0.513-0.4-1.047-0.54-1.6zM79.69-6.96v-5.66h-1.54c-1.693 0-3.057 0.117-4.09 0.35-1.033 0.24-1.833 0.567-2.4 0.98-0.573 0.413-0.953 0.893-1.14 1.44-0.187 0.547-0.28 1.137-0.28 1.77v0c0 0.667 0.097 1.253 0.29 1.76 0.2 0.5 0.467 0.923 0.8 1.27 0.333 0.34 0.727 0.6 1.18 0.78 0.453 0.18 0.94 0.27 1.46 0.27v0c0.393 0 0.803-0.047 1.23-0.14 0.42-0.087 0.863-0.243 1.33-0.47 0.46-0.233 0.95-0.537 1.47-0.91 0.52-0.373 1.083-0.853 1.69-1.44zM113.18-5.32v2.95c-1.153 0.927-2.437 1.637-3.85 2.13-1.42 0.487-2.943 0.73-4.57 0.73v0c-1.82 0-3.463-0.307-4.93-0.92-1.467-0.607-2.713-1.453-3.74-2.54-1.02-1.08-1.807-2.373-2.36-3.88-0.553-1.507-0.83-3.163-0.83-4.97v0c0-2.127 0.373-4.083 1.12-5.87 0.747-1.78 1.767-3.313 3.06-4.6 1.293-1.287 2.82-2.287 4.58-3 1.76-0.72 3.647-1.08 5.66-1.08v0c0.44 0 0.913 0.02 1.42 0.06 0.507 0.04 1.023 0.103 1.55 0.19 0.527 0.08 1.047 0.19 1.56 0.33 0.513 0.133 0.99 0.3 1.43 0.5v0l-1.05 4.54-0.51 0.24c-0.293-0.213-0.64-0.42-1.04-0.62-0.4-0.207-0.827-0.383-1.28-0.53-0.453-0.147-0.927-0.263-1.42-0.35-0.487-0.087-0.967-0.13-1.44-0.13v0c-1.04 0-2.01 0.203-2.91 0.61-0.907 0.407-1.697 1-2.37 1.78-0.68 0.78-1.213 1.737-1.6 2.87-0.393 1.127-0.59 2.407-0.59 3.84v0c0 1.5 0.213 2.81 0.64 3.93 0.42 1.127 1.003 2.067 1.75 2.82 0.753 0.76 1.643 1.33 2.67 1.71 1.02 0.387 2.133 0.58 3.34 0.58v0c0.747 0 1.6-0.09 2.56-0.27 0.96-0.18 2.01-0.53 3.15-1.05zM119.9 0v-39.11h5.91v17.41c0.6-0.54 1.263-1.083 1.99-1.63 0.72-0.547 1.483-1.047 2.29-1.5 0.807-0.453 1.657-0.823 2.55-1.11 0.893-0.287 1.82-0.43 2.78-0.43v0c1.173 0 2.24 0.22 3.2 0.66 0.96 0.44 1.783 1.06 2.47 1.86 0.68 0.793 1.21 1.753 1.59 2.88 0.373 1.12 0.56 2.363 0.56 3.73v0 17.24h-5.94v-16.58c0-0.88-0.12-1.647-0.36-2.3-0.247-0.66-0.58-1.21-1-1.65-0.427-0.44-0.937-0.77-1.53-0.99-0.593-0.22-1.23-0.33-1.91-0.33v0c-1.207 0-2.347 0.31-3.42 0.93-1.073 0.613-2.163 1.427-3.27 2.44v0 18.48z" fill="#ffffff" fill-rule="nonzero" stroke="none" stroke-width="1" stroke-linecap="butt" stroke-linejoin="miter" stroke-miterlimit="10" stroke-dasharray="" stroke-dashoffset="0" font-family="none" font-weight="none" font-size="none" text-anchor="none" style="mix-blend-mode: normal" data-fill-palette-color="primary" opacity="1"></path></g></svg></g></svg></g></svg></g></svg></g><g transform="matrix(1,0,0,1,0,0.4999999999999716)"><svg viewBox="0 0 193.30854210160055 200.00000000000003" height="200.00000000000003" width="193.30854210160055"><g><svg xmlns="http://www.w3.org/2000/svg" xmlns:xlink="http://www.w3.org/1999/xlink" version="1.1" x="0" y="0" viewBox="3.7369999999999983 3.7360000000000007 88.89099999999999 91.968" enable-background="new 0 0 100 100" xml:space="preserve" height="200.00000000000003" width="193.30854210160055" class="icon-icon-0" data-fill-palette-color="accent" id="icon-0"><g fill="#ffffff" data-fill-palette-color="accent"><path fill="#ffffff" d="M50.222 87.37h-9.701l17.981-47.708c5.903 2.556 10.901 5.529 14.354 8.414 6.528-14.277 5.51-29.039-3.962-37.96-22.268 3.409-30.042 13.656-34.783 23.55 4.842 0.007 11.278 1.218 18.177 3.583L33.181 87.188h-0.954c-4.909 0-28.49 3.606-28.49 8.516h75.555C79.292 90.794 55.13 87.37 50.222 87.37" data-fill-palette-color="accent"></path><path fill="#ffffff" d="M77.812 15.89c5.043 13.433 4.566 26.709 0 36.481 3.288 1.15 5.883 2.915 9.228 5.951 1.56 1.417 2.93 2.91 4.106 4.416 1.111-4.101 1.482-7.256 1.482-11.755C92.628 33.85 86.215 24.18 77.812 15.89" data-fill-palette-color="accent"></path><path fill="#ffffff" d="M29.245 31.211c4.713-9.731 13.39-19.214 30.616-24.57-2.696-0.612-5.484-0.938-8.346-0.938-17.596 0-28.72 8.583-35.556 23.146C18.737 28.294 26.107 29.97 29.245 31.211" data-fill-palette-color="accent"></path><path fill="#ffffff" d="M65.902 6.548c1.244 0 2.25-0.628 2.25-1.406 0-0.775-1.006-1.406-2.25-1.406s-2.25 0.631-2.25 1.406C63.652 5.919 64.658 6.548 65.902 6.548" data-fill-palette-color="accent"></path></g></svg></g></svg></g></svg></g><defs></defs></svg><rect width="395.52" height="141.9430894933358" fill="none" stroke="none" visibility="hidden"></rect></g></svg></g></svg>